<?xml version="1.0" standalone="no"?>
<!DOCTYPE svg PUBLIC "-//W3C//DTD SVG 20010904//EN"
 "http://www.w3.org/TR/2001/REC-SVG-20010904/DTD/svg10.dtd">
<svg version="1.0" xmlns="http://www.w3.org/2000/svg"
 width="512.000000pt" height="512.000000pt" viewBox="0 0 512.000000 512.000000"
 preserveAspectRatio="xMidYMid meet">
<metadata>
Created by potrace 1.14, written by Peter Selinger 2001-2017
</metadata>
<g transform="translate(0.000000,512.000000) scale(0.100000,-0.100000)"
fill="#000000" stroke="none">
<path d="M395 5101 c-33 -9 -85 -30 -115 -46 -73 -39 -178 -146 -217 -220 -68
-129 -63 37 -63 -2277 0 -1822 2 -2101 15 -2151 49 -189 203 -343 392 -392 86
-23 4220 -23 4306 0 189 49 343 203 392 392 13 50 15 329 15 2151 0 2314 5
2148 -63 2277 -40 77 -145 182 -222 222 -129 68 37 63 -2281 62 -1956 0 -2103
-2 -2159 -18z m2589 -1068 c35 -71 404 -787 820 -1593 416 -806 756 -1468 756
-1472 0 -5 -165 -8 -367 -8 l-368 0 -346 706 c-190 388 -349 706 -354 706 -4
-1 -58 -112 -120 -249 l-112 -248 -253 -22 c-140 -13 -255 -21 -258 -19 -3 4
308 550 461 809 l40 68 74 -73 c40 -40 73 -69 73 -65 0 10 -449 929 -459 940
-4 4 -195 -383 -424 -860 -229 -477 -414 -869 -413 -871 2 -2 208 -14 457 -27
250 -14 462 -26 472 -27 15 -3 6 -22 -52 -112 -39 -60 -69 -111 -67 -113 2 -2
52 26 111 62 59 37 113 69 120 71 7 3 59 -69 134 -190 66 -107 121 -197 121
-200 0 -3 -238 -6 -529 -6 l-529 0 -132 230 c-73 127 -135 232 -139 235 -4 2
-88 -165 -186 -371 l-180 -374 -388 0 c-366 0 -389 1 -383 18 4 9 386 729 849
1599 l842 1582 332 1 333 0 64 -127z"/>
</g>
</svg>
